HIERARCHY
ROOT Hips
{
	OFFSET 0.0000 0.0000 0.0000
	CHANNELS 6 Xposition Yposition Zposition Zrotation Xrotation Yrotation
	JOINT Spine1
	{
		OFFSET -0.0137 5.0038 -0.0537
		CHANNELS 3 Zrotation Xrotation Yrotation
		JOINT Spine2
		{
			OFFSET -0.0000 7.1253 -0.0298
			CHANNELS 3 Zrotation Xrotation Yrotation
			JOINT Chest
			{
				OFFSET -0.0000 7.5501 -0.8160
				CHANNELS 3 Zrotation Xrotation Yrotation
				JOINT Neck1
				{
					OFFSET -0.1817 26.3113 -0.5533
					CHANNELS 3 Zrotation Xrotation Yrotation
					JOINT Neck2
					{
						OFFSET -0.0000 7.7094 2.3026
						CHANNELS 3 Zrotation Xrotation Yrotation
						JOINT Head
						{
							OFFSET -0.0000 6.1289 1.9537
							CHANNELS 3 Zrotation Xrotation Yrotation
							JOINT Jaw
							{
								OFFSET 0.0026 0.4756 3.0949
								CHANNELS 3 Zrotation Xrotation Yrotation
								End Site
								{
									OFFSET 0.0 1.0 0.0
								}
							}
							JOINT LeftEye
							{
								OFFSET 3.2064 5.3802 7.5869
								CHANNELS 3 Zrotation Xrotation Yrotation
								End Site
								{
									OFFSET 0.0 1.0 0.0
								}
							}
							JOINT RightEye
							{
								OFFSET -3.2224 5.3619 7.5582
								CHANNELS 3 Zrotation Xrotation Yrotation
								End Site
								{
									OFFSET 0.0 1.0 0.0
								}
							}
						}
					}
				}
				JOINT LeftShoulder
				{
					OFFSET 1.6217 23.2372 5.1134
					CHANNELS 3 Zrotation Xrotation Yrotation
					JOINT LeftArm
					{
						OFFSET 14.9198 0.0000 -5.5023
						CHANNELS 3 Zrotation Xrotation Yrotation
						JOINT LeftForeArm
						{
							OFFSET 28.7393 0.0000 -0.0026
							CHANNELS 3 Zrotation Xrotation Yrotation
							JOINT LeftHand
							{
								OFFSET 27.0940 -0.0000 0.0026
								CHANNELS 3 Zrotation Xrotation Yrotation
								JOINT LeftHandThumbEnd
								{
									OFFSET 12.2686 -3.2202 4.8331
									CHANNELS 3 Zrotation Xrotation Yrotation
									End Site
									{
										OFFSET 0.0 1.0 0.0
									}
								}
								JOINT LeftHandMiddleEnd
								{
									OFFSET 19.0120 -0.3129 -0.0340
									CHANNELS 3 Zrotation Xrotation Yrotation
									End Site
									{
										OFFSET 0.0 1.0 0.0
									}
								}
							}
						}
					}
				}
				JOINT RightShoulder
				{
					OFFSET -1.3801 23.1803 5.2142
					CHANNELS 3 Zrotation Xrotation Yrotation
					JOINT RightArm
					{
						OFFSET -15.0372 0.0000 -5.5456
						CHANNELS 3 Zrotation Xrotation Yrotation
						JOINT RightForeArm
						{
							OFFSET -28.7366 0.0000 -0.0026
							CHANNELS 3 Zrotation Xrotation Yrotation
							JOINT RightHand
							{
								OFFSET -27.1336 -0.0000 0.0026
								CHANNELS 3 Zrotation Xrotation Yrotation
								JOINT RightHandThumbEnd
								{
									OFFSET -12.2642 -3.2115 4.8040
									CHANNELS 3 Zrotation Xrotation Yrotation
									End Site
									{
										OFFSET 0.0 1.0 0.0
									}
								}
								JOINT RightHandMiddleEnd
								{
									OFFSET -19.0006 -0.3066 -0.0316
									CHANNELS 3 Zrotation Xrotation Yrotation
									End Site
									{
										OFFSET 0.0 1.0 0.0
									}
								}
							}
						}
					}
				}
			}
		}
	}
	JOINT LeftLeg
	{
		OFFSET 10.0432 -8.4345 2.5957
		CHANNELS 3 Zrotation Xrotation Yrotation
		JOINT LeftShin
		{
			OFFSET -0.0000 -43.2218 -0.8029
			CHANNELS 3 Zrotation Xrotation Yrotation
			JOINT LeftFoot
			{
				OFFSET 0.0000 -42.1551 -3.4815
				CHANNELS 3 Zrotation Xrotation Yrotation
				JOINT LeftToeBase
				{
					OFFSET 0.0000 -5.0595 13.2315
					CHANNELS 3 Zrotation Xrotation Yrotation
					End Site
					{
						OFFSET 0.0 1.0 0.0
					}
				}
			}
		}
	}
	JOINT RightLeg
	{
		OFFSET -10.0473 -8.2953 2.6203
		CHANNELS 3 Zrotation Xrotation Yrotation
		JOINT RightShin
		{
			OFFSET 0.0000 -43.3622 -0.8056
			CHANNELS 3 Zrotation Xrotation Yrotation
			JOINT RightFoot
			{
				OFFSET 0.0000 -42.1174 -3.4784
				CHANNELS 3 Zrotation Xrotation Yrotation
				JOINT RightToeBase
				{
					OFFSET -0.0000 -5.0796 13.2842
					CHANNELS 3 Zrotation Xrotation Yrotation
					End Site
					{
						OFFSET 0.0 1.0 0.0
					}
				}
			}
		}
	}
}
MOTION
Frames: 5
Frame Time: 0.033333
-35.6520 94.2713 529.1485 2.8183 6.6013 -6.3196 -2.2878 3.9234 0.3042 -1.0935 -3.3470 2.3200 -1.0708 9.6966 0.5243 2.6792 -3.1462 1.9647 -1.5407 -3.6137 -2.5246 3.1384 -5.5988 -4.8445 -0.0004 -0.0238 0.1262 0.7361 -10.7408 -3.7166 -0.7468 -10.8013 3.9549 -6.9372 16.4555 -0.5861 -60.2617 12.9649 -11.1752 -0.0289 0.3443 -100.8402 2.1233 1.4869 12.5839 -14.6033 11.3882 16.3777 -60.2304 1.6766 2.2302 8.9781 16.0641 9.6323 62.2810 12.5273 13.5584 1.5782 -0.5274 108.2566 -0.6002 6.5434 -1.8141 15.3630 7.5349 -16.1605 50.7622 -2.8108 -5.4329 -9.9715 -36.4300 4.4212 -0.0036 39.3590 0.0876 -1.2322 -10.2226 6.8769 1.7050 -3.4118 -2.1453 -7.0061 2.6316 -1.9087 -0.0142 56.9526 1.0133 12.6185 22.3089 7.1584 -1.1882 -4.8128 1.0364
-36.6257 92.8530 537.0072 4.4290 5.7756 -4.7599 -3.4565 4.7926 -0.0841 -1.4127 -3.1686 1.4880 -2.3096 10.1039 -0.4978 3.1911 -2.5163 1.7597 -1.4758 -3.6393 -2.1601 2.9556 -8.2641 -5.1289 0.0119 0.0130 0.1642 0.7321 -10.7461 -3.6897 -0.7231 -10.8364 4.0037 -8.3710 16.2212 -2.2191 -55.5328 8.2354 -12.1178 -0.0117 -0.0507 -99.7181 2.8291 1.8089 10.9197 -14.4061 11.3358 16.5462 -59.8340 1.6115 2.3002 9.6102 16.6055 8.4079 62.1242 13.1494 14.2157 1.3422 -0.7711 105.9126 -0.9709 6.0230 -0.9435 15.3452 7.6024 -16.3665 50.6282 -3.0172 -5.3752 -12.1667 -33.7791 4.0332 0.0581 46.3306 0.2271 0.8752 -16.1249 7.5094 1.6680 -2.7182 -2.0449 -8.9799 -4.7517 -1.6823 0.4705 70.4959 1.2135 9.8008 13.2723 5.7172 -1.2880 -5.1622 1.0539
-37.6360 91.8363 545.0127 5.0484 5.2047 -3.8785 -4.0747 5.5845 -0.4460 -1.6681 -2.9285 0.6413 -3.1775 10.5624 -1.4430 3.8293 -2.6726 1.4613 -1.3069 -3.6583 -1.6955 2.7574 -10.2737 -4.6312 0.0171 0.0208 0.1174 0.7283 -10.7346 -3.7438 -0.7096 -10.8226 3.9680 -9.7342 15.9987 -4.1330 -49.8843 2.8031 -13.5340 0.0704 -0.1524 -98.0601 3.8266 4.5100 10.0437 -14.3681 11.3422 16.4599 -59.5511 1.5646 2.1129 10.1614 17.1873 7.2249 61.8902 12.8902 14.9762 0.9813 -0.5032 102.2232 -1.7630 8.1901 -1.7040 15.3011 7.6573 -16.4779 50.5955 -3.2272 -5.2118 -12.8034 -29.9652 2.9418 0.1833 50.6919 0.4494 0.9002 -21.7479 8.3956 1.6662 -2.4789 -2.0838 -9.7922 -13.6428 -0.6514 1.3802 80.1911 1.8478 5.9974 5.1974 2.6950 -1.3536 -5.6836 1.0695
-38.6205 91.4293 552.7007 4.1311 5.0399 -3.9787 -4.0384 6.0782 -0.7151 -1.6293 -2.7728 -0.1529 -3.3010 10.8476 -2.1923 4.1958 -3.2191 1.2951 -1.0632 -3.6546 -1.1501 2.5246 -11.1796 -3.6618 0.0176 -0.0191 0.0310 0.7186 -10.7748 -3.8404 -0.6978 -10.8486 3.8979 -9.9642 15.5785 -6.0446 -45.4767 -2.2650 -13.9412 -0.0429 -0.3936 -98.1824 3.3499 7.8258 9.6049 -14.7266 11.2394 16.2727 -59.8032 1.4633 1.9753 10.3311 17.5943 6.4290 61.8630 12.3616 14.6978 0.7958 -0.5586 99.1028 -2.9971 12.7991 -4.6160 15.2750 7.6414 -16.4391 50.3820 -3.3427 -5.0285 -11.2685 -24.6755 1.4102 0.1161 51.6327 0.4572 0.0224 -26.0603 9.3935 1.6817 -2.4535 -2.1568 -8.4179 -23.4157 0.6474 3.1977 84.6072 3.4365 3.8137 -1.0478 -0.2089 -1.3408 -5.7389 1.0313
-39.5307 91.8229 560.2020 2.4855 5.4948 -4.5361 -3.7887 6.1252 -0.9904 -1.3952 -2.7368 -0.8439 -2.8846 10.6172 -2.9534 4.4834 -3.6389 1.1738 -0.8147 -3.6432 -0.5432 2.1261 -11.4803 -2.4300 0.0163 -0.0593 -0.0741 0.7189 -10.7960 -3.9515 -0.6988 -10.8582 3.8023 -9.1111 14.7456 -7.6138 -42.6893 -5.7029 -13.2319 -0.2401 -0.5804 -100.4363 2.0477 8.3332 8.7832 -15.1576 11.1296 16.1852 -59.9974 1.3822 2.1217 11.0009 17.3244 6.1135 61.4818 13.1519 12.9931 0.3820 -0.9335 98.9309 -3.7321 15.1893 -6.4216 15.2457 7.6333 -16.3315 50.1640 -3.4066 -4.9983 -8.9645 -18.0066 0.0133 0.0502 48.7982 0.3290 -0.9464 -27.7805 10.2329 1.7193 -3.8356 -2.2172 -5.4693 -32.8371 0.8988 2.2866 82.9001 2.3358 3.9113 -5.8125 -1.9628 -1.3232 -5.3251 0.9554
